# xmcd
#
# Track frame offsets:
#	150
#	42084
#	71626
#	97716
#	122348
#	149772
#	165592
#	191018
#	225811
#	247322
#	276809
#
# Disc length: 3960 seconds
#
# Revision: 1
# Processed by: cddbd v1.5.2PL0 Copyright (c) Steve Scherf et al.
# Submitted via: audiograbber 1.83.01
#
DISCID=920f760b
DTITLE=Grateful Dead - 71-12-09 Fox Theatre, St Louis MO
DYEAR=1900
DGENRE=
TTITLE0=Black Peter
TTITLE1=Playing In The Band
TTITLE2=Casey Jones
TTITLE3=One More Saturday Night
TTITLE4=Ramble On Rose
TTITLE5=Mexicali Blues
TTITLE6=Big Boss Man
TTITLE7=Sugar Magnolia
TTITLE8=Not Fade Away
TTITLE9=Going Down The Road Feeling Bad
TTITLE10=Not Fade Away
EXTD=
EXTT0=
EXTT1=
EXTT2=
EXTT3=
EXTT4=
EXTT5=
EXTT6=
EXTT7=
EXTT8=
EXTT9=
EXTT10=
PLAYORDER=
